<svg xmlns="http://www.w3.org/2000/svg" width="1200" height="700" viewBox="0 0 1200 700">
  <defs>
    <linearGradient id="g" x1="0" y1="0" x2="1" y2="1">
      <stop offset="0%" stop-color="#0b1220"/>
      <stop offset="100%" stop-color="#0f172a"/>
    </linearGradient>
    <radialGradient id="r" cx="30%" cy="25%" r="70%">
      <stop offset="0%" stop-color="#fbbf24" stop-opacity="0.28"/>
      <stop offset="60%" stop-color="#fbbf24" stop-opacity="0"/>
    </radialGradient>
    <filter id="blur" x="-20%" y="-20%" width="140%" height="140%">
      <feGaussianBlur stdDeviation="18"/>
    </filter>
  </defs>
  <rect width="1200" height="700" fill="url(#g)"/>
  <rect width="1200" height="700" fill="url(#r)"/>
  <circle cx="880" cy="180" r="120" fill="#fbbf24" opacity="0.14" filter="url(#blur)"/>
  <circle cx="260" cy="520" r="160" fill="#60a5fa" opacity="0.10" filter="url(#blur)"/>
  <g opacity="0.35">
    <path d="M0 520 C 200 460, 380 600, 600 540 C 820 480, 980 560, 1200 520 L1200 700 L0 700 Z" fill="#020617"/>
  </g>
  <g transform="translate(70,80)">
    <rect x="0" y="0" rx="28" ry="28" width="620" height="190" fill="rgba(2,6,23,0.55)" stroke="rgba(255,255,255,0.12)"/>
    <text x="36" y="72" fill="white" font-family="ui-sans-serif, system-ui, -apple-system, Segoe UI, Roboto" font-size="54" font-weight="700">Paris 1889</text>
    <text x="36" y="124" fill="rgba(255,255,255,0.82)" font-family="ui-sans-serif, system-ui, -apple-system, Segoe UI, Roboto" font-size="28">Belle Époque • Exposition Universelle</text>
    <text x="36" y="164" fill="rgba(251,191,36,0.95)" font-family="ui-monospace, SFMono-Regular, Menlo, Monaco, Consolas" font-size="18">TimeTravel Agency • Premium Chrono Travel</text>
  </g>
  <g transform="translate(920,520)">
    <rect x="-210" y="-120" rx="26" ry="26" width="320" height="160" fill="rgba(2,6,23,0.55)" stroke="rgba(255,255,255,0.12)"/>
    <text x="-178" y="-60" fill="rgba(255,255,255,0.9)" font-family="ui-sans-serif, system-ui" font-size="18">Expédition</text>
    <text x="-178" y="-20" fill="#fbbf24" font-family="ui-sans-serif, system-ui" font-size="38" font-weight="700">LUXE</text>
    <text x="-178" y="24" fill="rgba(255,255,255,0.8)" font-family="ui-sans-serif, system-ui" font-size="16">Brief • Couverture • IA concierge</text>
  </g>
</svg>